HIERARCHY
ROOT Hips
{
	OFFSET 0.000000 0.000000 0.000000
	CHANNELS 6 Xposition Yposition Zposition Xrotation Yrotation Zrotation
	JOINT LeftUpLeg_virtual
	{
		OFFSET 0.000000 0.000000 0.000000
		CHANNELS 3 Xrotation Yrotation Zrotation
		JOINT LeftUpLeg
		{
			OFFSET 11.394100 -6.187798 -0.413800
			CHANNELS 3 Xrotation Yrotation Zrotation
			JOINT LeftLeg
			{
				OFFSET 0.430247 -32.302673 3.732800
				CHANNELS 3 Xrotation Yrotation Zrotation
				JOINT LeftFoot
				{
					OFFSET -0.430247 -48.264931 -6.423300
					CHANNELS 3 Xrotation Yrotation Zrotation
					JOINT LeftToeBase
					{
						OFFSET 4.230900 -16.068199 23.438400
						CHANNELS 3 Xrotation Yrotation Zrotation
						JOINT LeftToe_End
						{
							OFFSET 4.510700 0.695400 19.974600
							CHANNELS 3 Xrotation Yrotation Zrotation
							End Site
							{
								OFFSET 0 0 0
							}
						}
					}
				}
			}
		}
	}
	JOINT RightUpLeg_virtual
	{
		OFFSET 0.000000 0.000000 0.000000
		CHANNELS 3 Xrotation Yrotation Zrotation
		JOINT RightUpLeg
		{
			OFFSET -11.333700 -6.187798 -0.413800
			CHANNELS 3 Xrotation Yrotation Zrotation
			JOINT RightLeg
			{
				OFFSET -0.430392 -32.302628 3.733000
				CHANNELS 3 Xrotation Yrotation Zrotation
				JOINT RightFoot
				{
					OFFSET 0.430392 -48.264973 -6.423500
					CHANNELS 3 Xrotation Yrotation Zrotation
					JOINT RightToeBase
					{
						OFFSET -4.230900 -16.068199 23.438400
						CHANNELS 3 Xrotation Yrotation Zrotation
						JOINT RightToe_End
						{
							OFFSET -4.510700 0.695400 19.974600
							CHANNELS 3 Xrotation Yrotation Zrotation
							End Site
							{
								OFFSET 0 0 0
							}
						}
					}
				}
			}
		}
	}
	JOINT Spine_virtual
	{
		OFFSET 0.000000 0.000000 0.000000
		CHANNELS 3 Xrotation Yrotation Zrotation
		JOINT Spine
		{
			OFFSET -0.002400 12.777504 0.315300
			CHANNELS 3 Xrotation Yrotation Zrotation
			JOINT Spine1
			{
				OFFSET -0.002067 5.816869 0.032633
				CHANNELS 3 Xrotation Yrotation Zrotation
				JOINT Spine1_split
				{
					OFFSET -0.002067 5.816869 0.032633
					CHANNELS 3 Xrotation Yrotation Zrotation
					JOINT Spine2
					{
						OFFSET -0.002067 5.816869 0.032633
						CHANNELS 3 Xrotation Yrotation Zrotation
						JOINT Neck_virtual
						{
							OFFSET 0.000000 0.000000 0.000000
							CHANNELS 3 Xrotation Yrotation Zrotation
							JOINT Neck
							{
								OFFSET -0.003700 21.199493 -0.826900
								CHANNELS 3 Xrotation Yrotation Zrotation
								JOINT Head
								{
									OFFSET 0.000000 20.442200 4.834800
									CHANNELS 3 Xrotation Yrotation Zrotation
									JOINT HeadTop_End
									{
										OFFSET 0.000000 34.668396 4.968400
										CHANNELS 3 Xrotation Yrotation Zrotation
										End Site
										{
											OFFSET 0 0 0
										}
									}
								}
							}
						}
						JOINT LeftShoulder_virtual
						{
							OFFSET 0.000000 0.000000 0.000000
							CHANNELS 3 Xrotation Yrotation Zrotation
							JOINT LeftShoulder
							{
								OFFSET 3.288150 8.794197 -1.372250
								CHANNELS 3 Xrotation Yrotation Zrotation
								JOINT LeftShoulder_split
								{
									OFFSET 3.288150 8.794197 -1.372250
									CHANNELS 3 Xrotation Yrotation Zrotation
									JOINT LeftArm
									{
										OFFSET 11.953299 -2.279007 -0.146200
										CHANNELS 3 Xrotation Yrotation Zrotation
										JOINT LeftForeArm
										{
											OFFSET 18.448900 0.000000 0.000000
											CHANNELS 3 Xrotation Yrotation Zrotation
											JOINT LeftHand
											{
												OFFSET 29.527798 0.000000 0.000000
												CHANNELS 3 Xrotation Yrotation Zrotation
												End Site
												{
													OFFSET 0 0 0
												}
											}
										}
									}
								}
							}
						}
						JOINT RightShoulder_virtual
						{
							OFFSET 0.000000 0.000000 0.000000
							CHANNELS 3 Xrotation Yrotation Zrotation
							JOINT RightShoulder
							{
								OFFSET -3.249400 8.794197 -1.372250
								CHANNELS 3 Xrotation Yrotation Zrotation
								JOINT RightShoulder_split
								{
									OFFSET -3.249400 8.794197 -1.372250
									CHANNELS 3 Xrotation Yrotation Zrotation
									JOINT RightArm
									{
										OFFSET -11.953299 -2.279007 -0.146200
										CHANNELS 3 Xrotation Yrotation Zrotation
										JOINT RightForeArm
										{
											OFFSET -18.448900 0.000000 0.000000
											CHANNELS 3 Xrotation Yrotation Zrotation
											JOINT RightHand
											{
												OFFSET -29.527802 0.000000 0.000000
												CHANNELS 3 Xrotation Yrotation Zrotation
												End Site
												{
													OFFSET 0 0 0
												}
											}
										}
									}
								}
							}
						}
					}
				}
			}
		}
	}
}
MOTION
Frames: 4
Frame Time: 0.03333333
-0.081756 80.259178 2.306046 0.000000 0.000000 0.000000 6.943837 -51.509161 7.796199 -76.787268 21.211805 35.936781 51.570206 -16.380168 8.023304 12.517035 1.054983 -8.478171 -1.989963 -6.130593 0.559247 0.000000 0.000000 0.000000 4.256876 -51.469727 7.316762 -35.101326 1.084463 -22.305581 48.781354 5.797136 -8.597376 -21.274477 -3.026920 24.712717 2.754121 5.806398 2.166804 0.000000 0.000000 0.000000 9.069098 -50.269782 9.055000 12.406605 2.091275 -2.909324 4.737632 6.613577 -3.739029 0.480588 -2.604872 1.213687 0.000000 0.000000 0.000000 -4.084567 6.118685 -2.053256 0.673938 10.488706 -0.945441 -4.554305 23.721389 -1.706431 0.000000 0.000000 0.000000 -5.462303 6.180637 -2.382352 -1.328494 -10.196100 -4.310034 4.390427 -0.979427 -0.489422 -14.041806 2.319531 -43.913998 -22.962900 -27.547195 -15.683262 0.000000 0.000000 0.000000 -5.003741 5.775708 -2.444837 -2.497269 13.597729 0.605204 -2.177323 -4.434237 2.253604 0.626608 -14.306985 58.611452 -10.551534 44.789174 18.533966 0.000000 0.000000 0.000000 
-0.044240 80.180481 2.089905 0.000000 0.000000 0.000000 7.213289 -52.021736 7.874997 -76.498795 21.070546 36.040036 51.803659 -16.238968 8.059468 11.397107 1.160225 -7.795215 -2.136039 -6.077075 0.467780 0.000000 0.000000 0.000000 4.584714 -51.196947 7.309131 -35.212572 1.475662 -22.177957 48.612755 5.952673 -8.572062 -21.073179 -2.742706 25.088210 2.697449 5.965661 2.034934 0.000000 0.000000 0.000000 9.132208 -50.518511 9.050656 12.447300 2.127060 -3.107238 4.825780 6.612515 -3.810171 0.598346 -2.452565 1.292046 0.000000 0.000000 0.000000 -4.123066 6.148663 -2.098064 0.383528 10.455526 -1.002693 -4.663221 23.831625 -1.692549 0.000000 0.000000 0.000000 -5.292901 6.211889 -2.431638 -1.326388 -10.260261 -4.236257 4.287019 -0.944554 -0.192366 -14.014178 2.366881 -43.570200 -22.922173 -27.365718 -15.691654 0.000000 0.000000 0.000000 -5.000497 5.780483 -2.574340 -2.389195 14.305041 0.789627 -1.554561 -4.777446 1.480534 0.851746 -14.644732 56.367663 -7.659809 41.123435 16.967506 0.000000 0.000000 0.000000 
-0.021569 80.066216 1.784901 0.000000 0.000000 0.000000 7.858239 -52.720212 8.193186 -75.714860 21.025084 36.157430 51.592292 -16.022510 7.931452 10.035711 1.533116 -7.445179 -2.272606 -5.937440 0.515092 0.000000 0.000000 0.000000 4.994489 -51.210327 7.403325 -35.824096 1.693693 -22.020234 48.549319 5.829138 -8.476457 -20.363859 -2.265556 25.602261 2.619532 5.921036 2.182913 0.000000 0.000000 0.000000 9.294153 -50.754002 9.093372 12.468785 2.232124 -3.320552 5.000481 6.618913 -3.940745 0.468764 -2.354398 1.332244 0.000000 0.000000 0.000000 -4.054986 6.177512 -2.220449 0.050294 10.413338 -1.109225 -4.664749 23.912019 -1.794620 0.000000 0.000000 0.000000 -5.039510 6.217547 -2.595357 -1.318613 -10.114047 -4.116743 4.211721 -0.853704 0.034314 -14.442107 2.451506 -42.967856 -22.697296 -27.214812 -15.544660 0.000000 0.000000 0.000000 -4.949217 5.802920 -2.793653 -2.433267 15.053332 1.033768 -1.295247 -4.734235 0.814380 1.660082 -15.408531 54.407661 -1.677044 37.569428 13.522339 0.000000 0.000000 0.000000 
-0.083330 79.973709 1.370548 0.000000 0.000000 0.000000 8.639915 -53.272344 8.637657 -74.728683 21.021463 36.276808 50.721675 -15.928037 7.694160 9.321885 1.875566 -7.729215 -2.471215 -5.727242 0.634694 0.000000 0.000000 0.000000 5.424241 -51.334295 7.634325 -36.660081 1.735714 -21.926967 48.798754 5.269401 -8.333854 -19.716688 -1.851142 26.062163 2.597979 5.648031 2.518344 0.000000 0.000000 0.000000 9.506013 -50.746554 9.236326 12.436848 2.383777 -3.498507 5.206824 6.610035 -4.129670 0.266211 -2.544050 1.279787 0.000000 0.000000 0.000000 -3.882070 6.169957 -2.422539 -0.263218 10.360968 -1.251791 -4.530576 23.912728 -2.013427 0.000000 0.000000 0.000000 -4.781537 6.184072 -2.858277 -1.303500 -9.737227 -3.902686 4.118529 -0.969041 0.200115 -15.317585 2.432147 -42.307722 -22.287582 -27.104842 -15.284408 0.000000 0.000000 0.000000 -4.860614 5.796891 -3.057554 -2.585465 15.797498 1.436429 -1.163497 -4.752861 0.395029 3.106764 -15.800048 52.972331 5.837160 35.060505 9.333284 0.000000 0.000000 0.000000 
